<mxfile host="app.diagrams.net" modified="2024-01-18T20:13:43.700Z" agent="Mozilla/5.0 (Windows NT 10.0; Win64; x64) AppleWebKit/537.36 (KHTML, like Gecko) Chrome/120.0.0.0 Safari/537.36" etag="09TJJL5C7bHMYqJS64S1" version="22.1.21" type="device" pages="4">
  <diagram name="transformer-base" id="6MOdCAZpah0M3MAiv1za">
    <mxGraphModel dx="925" dy="543" grid="1" gridSize="10" guides="1" tooltips="1" connect="1" arrows="1" fold="1" page="1" pageScale="1" pageWidth="827" pageHeight="1169" math="0" shadow="0">
      <root>
        <mxCell id="0" />
        <mxCell id="1" parent="0" />
        <mxCell id="fyPHUERPPtGDj9DALVF5-58" value="" style="rounded=1;whiteSpace=wrap;html=1;fillColor=#f5f5f5;fontColor=#333333;strokeColor=#666666;" vertex="1" parent="1">
          <mxGeometry x="390" y="185" width="120" height="295" as="geometry" />
        </mxCell>
        <mxCell id="fyPHUERPPtGDj9DALVF5-57" value="" style="rounded=1;whiteSpace=wrap;html=1;fillColor=#f5f5f5;fontColor=#333333;strokeColor=#666666;" vertex="1" parent="1">
          <mxGeometry x="250" y="285" width="120" height="195" as="geometry" />
        </mxCell>
        <mxCell id="fyPHUERPPtGDj9DALVF5-33" style="edgeStyle=orthogonalEdgeStyle;rounded=0;orthogonalLoop=1;jettySize=auto;html=1;entryX=0.5;entryY=1;entryDx=0;entryDy=0;endSize=3;" edge="1" parent="1" source="fyPHUERPPtGDj9DALVF5-1" target="fyPHUERPPtGDj9DALVF5-8">
          <mxGeometry relative="1" as="geometry" />
        </mxCell>
        <mxCell id="fyPHUERPPtGDj9DALVF5-1" value="Multi-Head Attention" style="rounded=0;whiteSpace=wrap;html=1;fillColor=#ffe6cc;strokeColor=#000000;" vertex="1" parent="1">
          <mxGeometry x="280" y="415" width="80" height="30" as="geometry" />
        </mxCell>
        <mxCell id="fyPHUERPPtGDj9DALVF5-2" value="Masked &lt;br&gt;Multi-Head Attention" style="rounded=0;whiteSpace=wrap;html=1;fillColor=#ffe6cc;strokeColor=#000000;" vertex="1" parent="1">
          <mxGeometry x="400" y="405" width="80" height="40" as="geometry" />
        </mxCell>
        <mxCell id="fyPHUERPPtGDj9DALVF5-32" style="edgeStyle=orthogonalEdgeStyle;rounded=1;orthogonalLoop=1;jettySize=auto;html=1;entryX=0.903;entryY=1.024;entryDx=0;entryDy=0;curved=0;endSize=3;entryPerimeter=0;" edge="1" parent="1">
          <mxGeometry relative="1" as="geometry">
            <mxPoint x="440" y="400" as="sourcePoint" />
            <mxPoint x="472" y="330.00000000000006" as="targetPoint" />
            <Array as="points">
              <mxPoint x="440" y="350" />
              <mxPoint x="472" y="350" />
            </Array>
          </mxGeometry>
        </mxCell>
        <mxCell id="fyPHUERPPtGDj9DALVF5-43" style="edgeStyle=orthogonalEdgeStyle;rounded=1;orthogonalLoop=1;jettySize=auto;html=1;entryX=0;entryY=0.5;entryDx=0;entryDy=0;curved=0;endSize=3;" edge="1" parent="1" source="fyPHUERPPtGDj9DALVF5-3" target="fyPHUERPPtGDj9DALVF5-5">
          <mxGeometry relative="1" as="geometry">
            <Array as="points">
              <mxPoint x="320" y="370" />
              <mxPoint x="260" y="370" />
              <mxPoint x="260" y="300" />
            </Array>
          </mxGeometry>
        </mxCell>
        <mxCell id="fyPHUERPPtGDj9DALVF5-3" value="Add &amp;amp; Norm" style="rounded=0;whiteSpace=wrap;html=1;fillColor=#FFFFCC;strokeColor=#000000;" vertex="1" parent="1">
          <mxGeometry x="280" y="380" width="80" height="20" as="geometry" />
        </mxCell>
        <mxCell id="fyPHUERPPtGDj9DALVF5-59" style="edgeStyle=orthogonalEdgeStyle;rounded=1;orthogonalLoop=1;jettySize=auto;html=1;entryX=1;entryY=0.5;entryDx=0;entryDy=0;curved=0;exitX=0.5;exitY=0;exitDx=0;exitDy=0;endSize=3;" edge="1" parent="1" source="fyPHUERPPtGDj9DALVF5-2" target="fyPHUERPPtGDj9DALVF5-6">
          <mxGeometry relative="1" as="geometry">
            <Array as="points">
              <mxPoint x="440" y="360" />
              <mxPoint x="500" y="360" />
              <mxPoint x="500" y="280" />
            </Array>
          </mxGeometry>
        </mxCell>
        <mxCell id="fyPHUERPPtGDj9DALVF5-4" value="Add &amp;amp; Norm" style="rounded=0;whiteSpace=wrap;html=1;fillColor=#FFFFCC;strokeColor=#000000;" vertex="1" parent="1">
          <mxGeometry x="400" y="370" width="80" height="20" as="geometry" />
        </mxCell>
        <mxCell id="fyPHUERPPtGDj9DALVF5-30" style="edgeStyle=orthogonalEdgeStyle;rounded=1;orthogonalLoop=1;jettySize=auto;html=1;entryX=0.123;entryY=1.004;entryDx=0;entryDy=0;curved=0;exitX=0.5;exitY=0;exitDx=0;exitDy=0;endSize=3;entryPerimeter=0;" edge="1" parent="1" source="fyPHUERPPtGDj9DALVF5-8" target="fyPHUERPPtGDj9DALVF5-7">
          <mxGeometry relative="1" as="geometry">
            <Array as="points">
              <mxPoint x="320" y="270" />
              <mxPoint x="380" y="270" />
              <mxPoint x="380" y="350" />
              <mxPoint x="410" y="350" />
              <mxPoint x="410" y="330" />
            </Array>
          </mxGeometry>
        </mxCell>
        <mxCell id="fyPHUERPPtGDj9DALVF5-31" style="edgeStyle=orthogonalEdgeStyle;rounded=1;orthogonalLoop=1;jettySize=auto;html=1;entryX=0.5;entryY=1;entryDx=0;entryDy=0;curved=0;exitX=0.5;exitY=0;exitDx=0;exitDy=0;endSize=3;" edge="1" parent="1" source="fyPHUERPPtGDj9DALVF5-8" target="fyPHUERPPtGDj9DALVF5-7">
          <mxGeometry relative="1" as="geometry">
            <Array as="points">
              <mxPoint x="320" y="270" />
              <mxPoint x="380" y="270" />
              <mxPoint x="380" y="350" />
              <mxPoint x="440" y="350" />
            </Array>
          </mxGeometry>
        </mxCell>
        <mxCell id="fyPHUERPPtGDj9DALVF5-5" value="Add &amp;amp; Norm" style="rounded=0;whiteSpace=wrap;html=1;fillColor=#FFFFCC;strokeColor=#000000;" vertex="1" parent="1">
          <mxGeometry x="280" y="290" width="80" height="20" as="geometry" />
        </mxCell>
        <mxCell id="fyPHUERPPtGDj9DALVF5-41" style="edgeStyle=orthogonalEdgeStyle;rounded=0;orthogonalLoop=1;jettySize=auto;html=1;entryX=0.5;entryY=1;entryDx=0;entryDy=0;endSize=3;" edge="1" parent="1" source="fyPHUERPPtGDj9DALVF5-7" target="fyPHUERPPtGDj9DALVF5-9">
          <mxGeometry relative="1" as="geometry" />
        </mxCell>
        <mxCell id="fyPHUERPPtGDj9DALVF5-60" style="edgeStyle=orthogonalEdgeStyle;rounded=1;orthogonalLoop=1;jettySize=auto;html=1;entryX=1;entryY=0.5;entryDx=0;entryDy=0;curved=0;endSize=3;" edge="1" parent="1" source="fyPHUERPPtGDj9DALVF5-6" target="fyPHUERPPtGDj9DALVF5-10">
          <mxGeometry relative="1" as="geometry">
            <Array as="points">
              <mxPoint x="440" y="260" />
              <mxPoint x="500" y="260" />
              <mxPoint x="500" y="200" />
            </Array>
          </mxGeometry>
        </mxCell>
        <mxCell id="fyPHUERPPtGDj9DALVF5-6" value="Add &amp;amp; Norm" style="rounded=0;whiteSpace=wrap;html=1;fillColor=#FFFFCC;strokeColor=#000000;" vertex="1" parent="1">
          <mxGeometry x="400" y="270" width="80" height="20" as="geometry" />
        </mxCell>
        <mxCell id="fyPHUERPPtGDj9DALVF5-7" value="Multi-Head Attention" style="rounded=0;whiteSpace=wrap;html=1;fillColor=#ffe6cc;strokeColor=#000000;" vertex="1" parent="1">
          <mxGeometry x="400" y="300" width="80" height="30" as="geometry" />
        </mxCell>
        <mxCell id="fyPHUERPPtGDj9DALVF5-8" value="Feed&lt;br&gt;Forward" style="rounded=0;whiteSpace=wrap;html=1;fillColor=#dae8fc;strokeColor=#000000;" vertex="1" parent="1">
          <mxGeometry x="280" y="320" width="80" height="30" as="geometry" />
        </mxCell>
        <mxCell id="fyPHUERPPtGDj9DALVF5-42" style="edgeStyle=orthogonalEdgeStyle;rounded=0;orthogonalLoop=1;jettySize=auto;html=1;entryX=0.5;entryY=1;entryDx=0;entryDy=0;endSize=3;" edge="1" parent="1" source="fyPHUERPPtGDj9DALVF5-9" target="fyPHUERPPtGDj9DALVF5-11">
          <mxGeometry relative="1" as="geometry" />
        </mxCell>
        <mxCell id="fyPHUERPPtGDj9DALVF5-9" value="Feed&lt;br&gt;Forward" style="rounded=0;whiteSpace=wrap;html=1;fillColor=#dae8fc;strokeColor=#000000;" vertex="1" parent="1">
          <mxGeometry x="400" y="220" width="80" height="30" as="geometry" />
        </mxCell>
        <mxCell id="fyPHUERPPtGDj9DALVF5-45" style="edgeStyle=orthogonalEdgeStyle;rounded=0;orthogonalLoop=1;jettySize=auto;html=1;entryX=0.5;entryY=1;entryDx=0;entryDy=0;endSize=3;" edge="1" parent="1" source="fyPHUERPPtGDj9DALVF5-11" target="fyPHUERPPtGDj9DALVF5-12">
          <mxGeometry relative="1" as="geometry" />
        </mxCell>
        <mxCell id="fyPHUERPPtGDj9DALVF5-11" value="Linear" style="rounded=0;whiteSpace=wrap;html=1;fillColor=#e1d5e7;strokeColor=#9673a6;" vertex="1" parent="1">
          <mxGeometry x="400" y="150" width="80" height="20" as="geometry" />
        </mxCell>
        <mxCell id="fyPHUERPPtGDj9DALVF5-10" value="Add &amp;amp; Norm" style="rounded=0;whiteSpace=wrap;html=1;fillColor=#FFFFCC;strokeColor=#000000;" vertex="1" parent="1">
          <mxGeometry x="400" y="190" width="80" height="20" as="geometry" />
        </mxCell>
        <mxCell id="fyPHUERPPtGDj9DALVF5-12" value="Softmax" style="rounded=0;whiteSpace=wrap;html=1;fillColor=#d5e8d4;strokeColor=#82b366;" vertex="1" parent="1">
          <mxGeometry x="400" y="110" width="80" height="20" as="geometry" />
        </mxCell>
        <mxCell id="fyPHUERPPtGDj9DALVF5-13" value="Input&lt;br&gt;Embedding" style="rounded=0;whiteSpace=wrap;html=1;fillColor=#f8cecc;strokeColor=#b85450;" vertex="1" parent="1">
          <mxGeometry x="280" y="530" width="80" height="30" as="geometry" />
        </mxCell>
        <mxCell id="fyPHUERPPtGDj9DALVF5-14" value="Output&lt;br&gt;Embedding" style="rounded=0;whiteSpace=wrap;html=1;fillColor=#f8cecc;strokeColor=#b85450;" vertex="1" parent="1">
          <mxGeometry x="400" y="530" width="80" height="30" as="geometry" />
        </mxCell>
        <mxCell id="fyPHUERPPtGDj9DALVF5-20" value="" style="group;flipV=1;" vertex="1" connectable="0" parent="1">
          <mxGeometry x="260" y="487" width="28" height="30" as="geometry" />
        </mxCell>
        <mxCell id="fyPHUERPPtGDj9DALVF5-19" value="" style="ellipse;whiteSpace=wrap;html=1;aspect=fixed;rotation=-90;" vertex="1" parent="fyPHUERPPtGDj9DALVF5-20">
          <mxGeometry y="1.5" width="28" height="28" as="geometry" />
        </mxCell>
        <mxCell id="fyPHUERPPtGDj9DALVF5-17" value="" style="endArrow=none;html=1;rounded=0;curved=1;" edge="1" parent="fyPHUERPPtGDj9DALVF5-20">
          <mxGeometry width="50" height="50" relative="1" as="geometry">
            <mxPoint x="1.1546391752577319" y="9.896907216494842" as="sourcePoint" />
            <mxPoint x="27.134020618556697" y="19.175257731958766" as="targetPoint" />
            <Array as="points">
              <mxPoint x="12.70103092783505" y="3.7113402061855645" />
              <mxPoint x="15.58762886597938" y="25.360824742268044" />
            </Array>
          </mxGeometry>
        </mxCell>
        <mxCell id="fyPHUERPPtGDj9DALVF5-48" style="edgeStyle=orthogonalEdgeStyle;rounded=1;orthogonalLoop=1;jettySize=auto;html=1;entryX=0.5;entryY=1;entryDx=0;entryDy=0;curved=0;endSize=3;" edge="1" parent="1" source="fyPHUERPPtGDj9DALVF5-21" target="fyPHUERPPtGDj9DALVF5-1">
          <mxGeometry relative="1" as="geometry" />
        </mxCell>
        <mxCell id="fyPHUERPPtGDj9DALVF5-49" style="edgeStyle=orthogonalEdgeStyle;rounded=1;orthogonalLoop=1;jettySize=auto;html=1;curved=0;entryX=0.891;entryY=1.02;entryDx=0;entryDy=0;entryPerimeter=0;endSize=3;" edge="1" parent="1" source="fyPHUERPPtGDj9DALVF5-21" target="fyPHUERPPtGDj9DALVF5-1">
          <mxGeometry relative="1" as="geometry">
            <Array as="points">
              <mxPoint x="320" y="460" />
              <mxPoint x="351" y="460" />
            </Array>
          </mxGeometry>
        </mxCell>
        <mxCell id="fyPHUERPPtGDj9DALVF5-50" style="edgeStyle=orthogonalEdgeStyle;rounded=1;orthogonalLoop=1;jettySize=auto;html=1;curved=0;entryX=0.117;entryY=0.994;entryDx=0;entryDy=0;entryPerimeter=0;endSize=3;" edge="1" parent="1" source="fyPHUERPPtGDj9DALVF5-21" target="fyPHUERPPtGDj9DALVF5-1">
          <mxGeometry relative="1" as="geometry">
            <Array as="points">
              <mxPoint x="320" y="460" />
              <mxPoint x="289" y="460" />
            </Array>
          </mxGeometry>
        </mxCell>
        <mxCell id="fyPHUERPPtGDj9DALVF5-51" style="edgeStyle=orthogonalEdgeStyle;rounded=1;orthogonalLoop=1;jettySize=auto;html=1;entryX=0;entryY=0.5;entryDx=0;entryDy=0;curved=0;endSize=3;" edge="1" parent="1" source="fyPHUERPPtGDj9DALVF5-21" target="fyPHUERPPtGDj9DALVF5-3">
          <mxGeometry relative="1" as="geometry">
            <Array as="points">
              <mxPoint x="320" y="470" />
              <mxPoint x="260" y="470" />
              <mxPoint x="260" y="390" />
            </Array>
          </mxGeometry>
        </mxCell>
        <mxCell id="fyPHUERPPtGDj9DALVF5-21" value="" style="verticalLabelPosition=bottom;verticalAlign=top;html=1;shape=mxgraph.flowchart.summing_function;" vertex="1" parent="1">
          <mxGeometry x="312.5" y="494.5" width="15" height="15" as="geometry" />
        </mxCell>
        <mxCell id="fyPHUERPPtGDj9DALVF5-25" style="edgeStyle=orthogonalEdgeStyle;rounded=0;orthogonalLoop=1;jettySize=auto;html=1;entryX=0;entryY=0.5;entryDx=0;entryDy=0;entryPerimeter=0;jumpSize=4;endSize=3;" edge="1" parent="1" source="fyPHUERPPtGDj9DALVF5-19" target="fyPHUERPPtGDj9DALVF5-21">
          <mxGeometry relative="1" as="geometry" />
        </mxCell>
        <mxCell id="fyPHUERPPtGDj9DALVF5-27" style="edgeStyle=orthogonalEdgeStyle;rounded=0;orthogonalLoop=1;jettySize=auto;html=1;entryX=0.5;entryY=1;entryDx=0;entryDy=0;entryPerimeter=0;jumpSize=4;endSize=3;" edge="1" parent="1" source="fyPHUERPPtGDj9DALVF5-13" target="fyPHUERPPtGDj9DALVF5-21">
          <mxGeometry relative="1" as="geometry" />
        </mxCell>
        <mxCell id="fyPHUERPPtGDj9DALVF5-28" value="Positional&lt;br&gt;Encoding" style="text;html=1;align=center;verticalAlign=middle;resizable=0;points=[];autosize=1;strokeColor=none;fillColor=none;" vertex="1" parent="1">
          <mxGeometry x="190" y="482" width="80" height="40" as="geometry" />
        </mxCell>
        <mxCell id="fyPHUERPPtGDj9DALVF5-34" value="" style="group;flipV=1;" vertex="1" connectable="0" parent="1">
          <mxGeometry x="472" y="487" width="28" height="30" as="geometry" />
        </mxCell>
        <mxCell id="fyPHUERPPtGDj9DALVF5-35" value="" style="ellipse;whiteSpace=wrap;html=1;aspect=fixed;rotation=-90;" vertex="1" parent="fyPHUERPPtGDj9DALVF5-34">
          <mxGeometry y="1.5" width="28" height="28" as="geometry" />
        </mxCell>
        <mxCell id="fyPHUERPPtGDj9DALVF5-36" value="" style="endArrow=none;html=1;rounded=0;curved=1;" edge="1" parent="fyPHUERPPtGDj9DALVF5-34">
          <mxGeometry width="50" height="50" relative="1" as="geometry">
            <mxPoint x="1.1546391752577319" y="9.896907216494842" as="sourcePoint" />
            <mxPoint x="27.134020618556697" y="19.175257731958766" as="targetPoint" />
            <Array as="points">
              <mxPoint x="12.70103092783505" y="3.7113402061855645" />
              <mxPoint x="15.58762886597938" y="25.360824742268044" />
            </Array>
          </mxGeometry>
        </mxCell>
        <mxCell id="fyPHUERPPtGDj9DALVF5-53" style="edgeStyle=orthogonalEdgeStyle;rounded=1;orthogonalLoop=1;jettySize=auto;html=1;entryX=0.5;entryY=1;entryDx=0;entryDy=0;curved=0;endSize=3;" edge="1" parent="1" source="fyPHUERPPtGDj9DALVF5-37" target="fyPHUERPPtGDj9DALVF5-2">
          <mxGeometry relative="1" as="geometry" />
        </mxCell>
        <mxCell id="fyPHUERPPtGDj9DALVF5-54" style="edgeStyle=orthogonalEdgeStyle;rounded=1;orthogonalLoop=1;jettySize=auto;html=1;entryX=0.132;entryY=1.014;entryDx=0;entryDy=0;curved=0;entryPerimeter=0;endSize=3;" edge="1" parent="1" source="fyPHUERPPtGDj9DALVF5-37" target="fyPHUERPPtGDj9DALVF5-2">
          <mxGeometry relative="1" as="geometry">
            <Array as="points">
              <mxPoint x="440" y="460" />
              <mxPoint x="411" y="460" />
            </Array>
          </mxGeometry>
        </mxCell>
        <mxCell id="fyPHUERPPtGDj9DALVF5-55" style="edgeStyle=orthogonalEdgeStyle;rounded=1;orthogonalLoop=1;jettySize=auto;html=1;entryX=0.884;entryY=1.004;entryDx=0;entryDy=0;curved=0;entryPerimeter=0;endSize=3;" edge="1" parent="1" source="fyPHUERPPtGDj9DALVF5-37" target="fyPHUERPPtGDj9DALVF5-2">
          <mxGeometry relative="1" as="geometry">
            <mxPoint x="460" y="450" as="targetPoint" />
            <Array as="points">
              <mxPoint x="440" y="460" />
              <mxPoint x="471" y="460" />
            </Array>
          </mxGeometry>
        </mxCell>
        <mxCell id="fyPHUERPPtGDj9DALVF5-56" style="edgeStyle=orthogonalEdgeStyle;rounded=1;orthogonalLoop=1;jettySize=auto;html=1;entryX=1;entryY=0.5;entryDx=0;entryDy=0;curved=0;endSize=3;" edge="1" parent="1" source="fyPHUERPPtGDj9DALVF5-37" target="fyPHUERPPtGDj9DALVF5-4">
          <mxGeometry relative="1" as="geometry">
            <Array as="points">
              <mxPoint x="440" y="470" />
              <mxPoint x="500" y="470" />
              <mxPoint x="500" y="380" />
            </Array>
          </mxGeometry>
        </mxCell>
        <mxCell id="fyPHUERPPtGDj9DALVF5-37" value="" style="verticalLabelPosition=bottom;verticalAlign=top;html=1;shape=mxgraph.flowchart.summing_function;" vertex="1" parent="1">
          <mxGeometry x="432.5" y="494.5" width="15" height="15" as="geometry" />
        </mxCell>
        <mxCell id="fyPHUERPPtGDj9DALVF5-38" style="edgeStyle=orthogonalEdgeStyle;rounded=0;orthogonalLoop=1;jettySize=auto;html=1;entryX=1;entryY=0.5;entryDx=0;entryDy=0;entryPerimeter=0;endSize=3;" edge="1" parent="1" source="fyPHUERPPtGDj9DALVF5-35" target="fyPHUERPPtGDj9DALVF5-37">
          <mxGeometry relative="1" as="geometry" />
        </mxCell>
        <mxCell id="fyPHUERPPtGDj9DALVF5-40" value="Positional&lt;br&gt;Encoding" style="text;html=1;align=center;verticalAlign=middle;resizable=0;points=[];autosize=1;strokeColor=none;fillColor=none;" vertex="1" parent="1">
          <mxGeometry x="490" y="482" width="80" height="40" as="geometry" />
        </mxCell>
        <mxCell id="fyPHUERPPtGDj9DALVF5-47" value="Output&lt;br&gt;Probabilities" style="text;html=1;align=center;verticalAlign=middle;resizable=0;points=[];autosize=1;strokeColor=none;fillColor=none;" vertex="1" parent="1">
          <mxGeometry x="395" y="56" width="90" height="40" as="geometry" />
        </mxCell>
        <mxCell id="fyPHUERPPtGDj9DALVF5-52" style="edgeStyle=orthogonalEdgeStyle;rounded=0;orthogonalLoop=1;jettySize=auto;html=1;entryX=0.5;entryY=1;entryDx=0;entryDy=0;entryPerimeter=0;endSize=3;" edge="1" parent="1" source="fyPHUERPPtGDj9DALVF5-14" target="fyPHUERPPtGDj9DALVF5-37">
          <mxGeometry relative="1" as="geometry">
            <mxPoint x="440" y="510" as="targetPoint" />
          </mxGeometry>
        </mxCell>
        <mxCell id="fyPHUERPPtGDj9DALVF5-67" value="Nx" style="text;html=1;align=center;verticalAlign=middle;resizable=0;points=[];autosize=1;strokeColor=none;fillColor=none;" vertex="1" parent="1">
          <mxGeometry x="210" y="375" width="40" height="30" as="geometry" />
        </mxCell>
        <mxCell id="fyPHUERPPtGDj9DALVF5-68" value="Nx" style="text;html=1;align=center;verticalAlign=middle;resizable=0;points=[];autosize=1;strokeColor=none;fillColor=none;" vertex="1" parent="1">
          <mxGeometry x="510" y="340" width="40" height="30" as="geometry" />
        </mxCell>
        <mxCell id="fyPHUERPPtGDj9DALVF5-69" value="Inputs" style="text;html=1;align=center;verticalAlign=middle;resizable=0;points=[];autosize=1;strokeColor=none;fillColor=none;" vertex="1" parent="1">
          <mxGeometry x="290" y="570" width="60" height="30" as="geometry" />
        </mxCell>
        <mxCell id="fyPHUERPPtGDj9DALVF5-71" value="Outputs&lt;br&gt;(shifted right)" style="text;html=1;align=center;verticalAlign=middle;resizable=0;points=[];autosize=1;strokeColor=none;fillColor=none;" vertex="1" parent="1">
          <mxGeometry x="395" y="574" width="90" height="40" as="geometry" />
        </mxCell>
        <mxCell id="fyPHUERPPtGDj9DALVF5-74" value="" style="endArrow=classic;html=1;rounded=0;" edge="1" parent="1">
          <mxGeometry width="50" height="50" relative="1" as="geometry">
            <mxPoint x="319.87" y="580" as="sourcePoint" />
            <mxPoint x="319.87" y="560" as="targetPoint" />
          </mxGeometry>
        </mxCell>
        <mxCell id="fyPHUERPPtGDj9DALVF5-75" value="" style="endArrow=classic;html=1;rounded=0;" edge="1" parent="1">
          <mxGeometry width="50" height="50" relative="1" as="geometry">
            <mxPoint x="439.87" y="580" as="sourcePoint" />
            <mxPoint x="439.87" y="560" as="targetPoint" />
          </mxGeometry>
        </mxCell>
        <mxCell id="fyPHUERPPtGDj9DALVF5-84" value="" style="endArrow=classic;html=1;rounded=0;" edge="1" parent="1">
          <mxGeometry width="50" height="50" relative="1" as="geometry">
            <mxPoint x="439.87" y="110" as="sourcePoint" />
            <mxPoint x="439.87" y="90" as="targetPoint" />
          </mxGeometry>
        </mxCell>
      </root>
    </mxGraphModel>
  </diagram>
  <diagram id="HMmvMw_0RnTapSsGOQkV" name="transformer-large">
    <mxGraphModel dx="1434" dy="841" grid="1" gridSize="10" guides="1" tooltips="1" connect="1" arrows="1" fold="1" page="1" pageScale="1" pageWidth="827" pageHeight="1169" math="0" shadow="0">
      <root>
        <mxCell id="0" />
        <mxCell id="1" parent="0" />
        <mxCell id="Y0qwHH8CiaGH5l4RN_TT-6" style="edgeStyle=orthogonalEdgeStyle;rounded=0;orthogonalLoop=1;jettySize=auto;html=1;entryX=0.5;entryY=1;entryDx=0;entryDy=0;endSize=3;" edge="1" parent="1" source="Y0qwHH8CiaGH5l4RN_TT-7" target="Y0qwHH8CiaGH5l4RN_TT-21">
          <mxGeometry relative="1" as="geometry" />
        </mxCell>
        <mxCell id="Y0qwHH8CiaGH5l4RN_TT-7" value="Multi-Head Attention" style="rounded=0;whiteSpace=wrap;html=1;fillColor=#ffe6cc;strokeColor=#000000;" vertex="1" parent="1">
          <mxGeometry x="260" y="559" width="80" height="30" as="geometry" />
        </mxCell>
        <mxCell id="Y0qwHH8CiaGH5l4RN_TT-8" value="Masked &lt;br&gt;Multi-Head Attention" style="rounded=0;whiteSpace=wrap;html=1;fillColor=#ffe6cc;strokeColor=#000000;" vertex="1" parent="1">
          <mxGeometry x="450" y="549" width="80" height="40" as="geometry" />
        </mxCell>
        <mxCell id="Y0qwHH8CiaGH5l4RN_TT-9" style="edgeStyle=orthogonalEdgeStyle;rounded=1;orthogonalLoop=1;jettySize=auto;html=1;entryX=0.903;entryY=1.024;entryDx=0;entryDy=0;curved=0;endSize=3;entryPerimeter=0;" edge="1" parent="1">
          <mxGeometry relative="1" as="geometry">
            <mxPoint x="490" y="544" as="sourcePoint" />
            <mxPoint x="522" y="474.00000000000006" as="targetPoint" />
            <Array as="points">
              <mxPoint x="490" y="494" />
              <mxPoint x="522" y="494" />
            </Array>
          </mxGeometry>
        </mxCell>
        <mxCell id="Y0qwHH8CiaGH5l4RN_TT-10" style="edgeStyle=orthogonalEdgeStyle;rounded=1;orthogonalLoop=1;jettySize=auto;html=1;entryX=0;entryY=0.5;entryDx=0;entryDy=0;curved=0;endSize=3;" edge="1" parent="1" source="Y0qwHH8CiaGH5l4RN_TT-11" target="Y0qwHH8CiaGH5l4RN_TT-16">
          <mxGeometry relative="1" as="geometry">
            <Array as="points">
              <mxPoint x="300" y="514" />
              <mxPoint x="240" y="514" />
              <mxPoint x="240" y="444" />
            </Array>
          </mxGeometry>
        </mxCell>
        <mxCell id="Y0qwHH8CiaGH5l4RN_TT-11" value="Add &amp;amp; Norm" style="rounded=0;whiteSpace=wrap;html=1;fillColor=#FFFFCC;strokeColor=#000000;" vertex="1" parent="1">
          <mxGeometry x="260" y="524" width="80" height="20" as="geometry" />
        </mxCell>
        <mxCell id="Y0qwHH8CiaGH5l4RN_TT-12" style="edgeStyle=orthogonalEdgeStyle;rounded=1;orthogonalLoop=1;jettySize=auto;html=1;entryX=1;entryY=0.5;entryDx=0;entryDy=0;curved=0;exitX=0.5;exitY=0;exitDx=0;exitDy=0;endSize=3;" edge="1" parent="1" source="Y0qwHH8CiaGH5l4RN_TT-8" target="Y0qwHH8CiaGH5l4RN_TT-19">
          <mxGeometry relative="1" as="geometry">
            <Array as="points">
              <mxPoint x="490" y="504" />
              <mxPoint x="550" y="504" />
              <mxPoint x="550" y="424" />
            </Array>
          </mxGeometry>
        </mxCell>
        <mxCell id="Y0qwHH8CiaGH5l4RN_TT-13" value="Add &amp;amp; Norm" style="rounded=0;whiteSpace=wrap;html=1;fillColor=#FFFFCC;strokeColor=#000000;" vertex="1" parent="1">
          <mxGeometry x="450" y="514" width="80" height="20" as="geometry" />
        </mxCell>
        <mxCell id="Y0qwHH8CiaGH5l4RN_TT-14" style="edgeStyle=orthogonalEdgeStyle;rounded=1;orthogonalLoop=1;jettySize=auto;html=1;entryX=0.123;entryY=1.004;entryDx=0;entryDy=0;curved=0;exitX=0.5;exitY=0;exitDx=0;exitDy=0;endSize=3;entryPerimeter=0;" edge="1" parent="1" source="Y0qwHH8CiaGH5l4RN_TT-21" target="Y0qwHH8CiaGH5l4RN_TT-20">
          <mxGeometry relative="1" as="geometry">
            <Array as="points">
              <mxPoint x="370" y="414" />
              <mxPoint x="430" y="414" />
              <mxPoint x="430" y="494" />
              <mxPoint x="460" y="494" />
              <mxPoint x="460" y="474" />
            </Array>
          </mxGeometry>
        </mxCell>
        <mxCell id="Y0qwHH8CiaGH5l4RN_TT-15" style="edgeStyle=orthogonalEdgeStyle;rounded=1;orthogonalLoop=1;jettySize=auto;html=1;entryX=0.5;entryY=1;entryDx=0;entryDy=0;curved=0;exitX=0.5;exitY=0;exitDx=0;exitDy=0;endSize=3;" edge="1" parent="1" source="Y0qwHH8CiaGH5l4RN_TT-21" target="Y0qwHH8CiaGH5l4RN_TT-20">
          <mxGeometry relative="1" as="geometry">
            <Array as="points">
              <mxPoint x="300" y="414" />
              <mxPoint x="430" y="414" />
              <mxPoint x="430" y="494" />
              <mxPoint x="490" y="494" />
            </Array>
          </mxGeometry>
        </mxCell>
        <mxCell id="Y0qwHH8CiaGH5l4RN_TT-16" value="Add &amp;amp; Norm" style="rounded=0;whiteSpace=wrap;html=1;fillColor=#FFFFCC;strokeColor=#000000;" vertex="1" parent="1">
          <mxGeometry x="260" y="434" width="80" height="20" as="geometry" />
        </mxCell>
        <mxCell id="Y0qwHH8CiaGH5l4RN_TT-17" style="edgeStyle=orthogonalEdgeStyle;rounded=0;orthogonalLoop=1;jettySize=auto;html=1;entryX=0.5;entryY=1;entryDx=0;entryDy=0;endSize=3;" edge="1" parent="1" source="Y0qwHH8CiaGH5l4RN_TT-20" target="Y0qwHH8CiaGH5l4RN_TT-23">
          <mxGeometry relative="1" as="geometry" />
        </mxCell>
        <mxCell id="Y0qwHH8CiaGH5l4RN_TT-18" style="edgeStyle=orthogonalEdgeStyle;rounded=1;orthogonalLoop=1;jettySize=auto;html=1;entryX=1;entryY=0.5;entryDx=0;entryDy=0;curved=0;endSize=3;" edge="1" parent="1" source="Y0qwHH8CiaGH5l4RN_TT-19" target="Y0qwHH8CiaGH5l4RN_TT-26">
          <mxGeometry relative="1" as="geometry">
            <Array as="points">
              <mxPoint x="490" y="404" />
              <mxPoint x="550" y="404" />
              <mxPoint x="550" y="344" />
            </Array>
          </mxGeometry>
        </mxCell>
        <mxCell id="Y0qwHH8CiaGH5l4RN_TT-19" value="Add &amp;amp; Norm" style="rounded=0;whiteSpace=wrap;html=1;fillColor=#FFFFCC;strokeColor=#000000;" vertex="1" parent="1">
          <mxGeometry x="450" y="414" width="80" height="20" as="geometry" />
        </mxCell>
        <mxCell id="Y0qwHH8CiaGH5l4RN_TT-20" value="Multi-Head Attention" style="rounded=0;whiteSpace=wrap;html=1;fillColor=#ffe6cc;strokeColor=#000000;" vertex="1" parent="1">
          <mxGeometry x="450" y="444" width="80" height="30" as="geometry" />
        </mxCell>
        <mxCell id="Y0qwHH8CiaGH5l4RN_TT-21" value="Feed&lt;br&gt;Forward" style="rounded=0;whiteSpace=wrap;html=1;fillColor=#dae8fc;strokeColor=#000000;" vertex="1" parent="1">
          <mxGeometry x="260" y="464" width="80" height="30" as="geometry" />
        </mxCell>
        <mxCell id="Y0qwHH8CiaGH5l4RN_TT-22" style="edgeStyle=orthogonalEdgeStyle;rounded=0;orthogonalLoop=1;jettySize=auto;html=1;entryX=0.5;entryY=1;entryDx=0;entryDy=0;endSize=3;" edge="1" parent="1" source="Y0qwHH8CiaGH5l4RN_TT-23" target="Y0qwHH8CiaGH5l4RN_TT-25">
          <mxGeometry relative="1" as="geometry" />
        </mxCell>
        <mxCell id="Y0qwHH8CiaGH5l4RN_TT-23" value="Feed&lt;br&gt;Forward" style="rounded=0;whiteSpace=wrap;html=1;fillColor=#dae8fc;strokeColor=#000000;" vertex="1" parent="1">
          <mxGeometry x="450" y="364" width="80" height="30" as="geometry" />
        </mxCell>
        <mxCell id="Y0qwHH8CiaGH5l4RN_TT-24" style="edgeStyle=orthogonalEdgeStyle;rounded=0;orthogonalLoop=1;jettySize=auto;html=1;entryX=0.5;entryY=1;entryDx=0;entryDy=0;endSize=3;" edge="1" parent="1" source="Y0qwHH8CiaGH5l4RN_TT-25" target="Y0qwHH8CiaGH5l4RN_TT-27">
          <mxGeometry relative="1" as="geometry" />
        </mxCell>
        <mxCell id="Y0qwHH8CiaGH5l4RN_TT-25" value="Linear" style="rounded=0;whiteSpace=wrap;html=1;fillColor=#e1d5e7;strokeColor=#9673a6;" vertex="1" parent="1">
          <mxGeometry x="450" y="294" width="80" height="20" as="geometry" />
        </mxCell>
        <mxCell id="Y0qwHH8CiaGH5l4RN_TT-26" value="Add &amp;amp; Norm" style="rounded=0;whiteSpace=wrap;html=1;fillColor=#FFFFCC;strokeColor=#000000;" vertex="1" parent="1">
          <mxGeometry x="450" y="334" width="80" height="20" as="geometry" />
        </mxCell>
        <mxCell id="Y0qwHH8CiaGH5l4RN_TT-27" value="Softmax" style="rounded=0;whiteSpace=wrap;html=1;fillColor=#d5e8d4;strokeColor=#82b366;" vertex="1" parent="1">
          <mxGeometry x="450" y="254" width="80" height="20" as="geometry" />
        </mxCell>
        <mxCell id="Y0qwHH8CiaGH5l4RN_TT-28" value="Input&lt;br&gt;Embedding" style="rounded=0;whiteSpace=wrap;html=1;fillColor=#f8cecc;strokeColor=#b85450;" vertex="1" parent="1">
          <mxGeometry x="260" y="692" width="80" height="30" as="geometry" />
        </mxCell>
        <mxCell id="Y0qwHH8CiaGH5l4RN_TT-29" value="Output&lt;br&gt;Embedding" style="rounded=0;whiteSpace=wrap;html=1;fillColor=#f8cecc;strokeColor=#b85450;" vertex="1" parent="1">
          <mxGeometry x="450" y="692" width="80" height="30" as="geometry" />
        </mxCell>
        <mxCell id="Y0qwHH8CiaGH5l4RN_TT-30" value="" style="group;flipV=1;" vertex="1" connectable="0" parent="1">
          <mxGeometry x="240" y="649" width="28" height="30" as="geometry" />
        </mxCell>
        <mxCell id="Y0qwHH8CiaGH5l4RN_TT-31" value="" style="ellipse;whiteSpace=wrap;html=1;aspect=fixed;rotation=-90;" vertex="1" parent="Y0qwHH8CiaGH5l4RN_TT-30">
          <mxGeometry y="1.5" width="28" height="28" as="geometry" />
        </mxCell>
        <mxCell id="Y0qwHH8CiaGH5l4RN_TT-32" value="" style="endArrow=none;html=1;rounded=0;curved=1;" edge="1" parent="Y0qwHH8CiaGH5l4RN_TT-30">
          <mxGeometry width="50" height="50" relative="1" as="geometry">
            <mxPoint x="1.1546391752577319" y="9.896907216494842" as="sourcePoint" />
            <mxPoint x="27.134020618556697" y="19.175257731958766" as="targetPoint" />
            <Array as="points">
              <mxPoint x="12.70103092783505" y="3.7113402061855645" />
              <mxPoint x="15.58762886597938" y="25.360824742268044" />
            </Array>
          </mxGeometry>
        </mxCell>
        <mxCell id="Y0qwHH8CiaGH5l4RN_TT-33" style="edgeStyle=orthogonalEdgeStyle;rounded=1;orthogonalLoop=1;jettySize=auto;html=1;entryX=0.5;entryY=1;entryDx=0;entryDy=0;curved=0;endSize=3;" edge="1" parent="1" source="Y0qwHH8CiaGH5l4RN_TT-37" target="Y0qwHH8CiaGH5l4RN_TT-7">
          <mxGeometry relative="1" as="geometry" />
        </mxCell>
        <mxCell id="Y0qwHH8CiaGH5l4RN_TT-34" style="edgeStyle=orthogonalEdgeStyle;rounded=1;orthogonalLoop=1;jettySize=auto;html=1;curved=0;entryX=0.891;entryY=1.02;entryDx=0;entryDy=0;entryPerimeter=0;endSize=3;" edge="1" parent="1" source="Y0qwHH8CiaGH5l4RN_TT-37" target="Y0qwHH8CiaGH5l4RN_TT-7">
          <mxGeometry relative="1" as="geometry">
            <Array as="points">
              <mxPoint x="300" y="604" />
              <mxPoint x="331" y="604" />
            </Array>
          </mxGeometry>
        </mxCell>
        <mxCell id="Y0qwHH8CiaGH5l4RN_TT-35" style="edgeStyle=orthogonalEdgeStyle;rounded=1;orthogonalLoop=1;jettySize=auto;html=1;curved=0;entryX=0.117;entryY=0.994;entryDx=0;entryDy=0;entryPerimeter=0;endSize=3;" edge="1" parent="1" source="Y0qwHH8CiaGH5l4RN_TT-37" target="Y0qwHH8CiaGH5l4RN_TT-7">
          <mxGeometry relative="1" as="geometry">
            <Array as="points">
              <mxPoint x="300" y="604" />
              <mxPoint x="269" y="604" />
            </Array>
          </mxGeometry>
        </mxCell>
        <mxCell id="Y0qwHH8CiaGH5l4RN_TT-36" style="edgeStyle=orthogonalEdgeStyle;rounded=1;orthogonalLoop=1;jettySize=auto;html=1;entryX=0;entryY=0.5;entryDx=0;entryDy=0;curved=0;endSize=3;" edge="1" parent="1" source="Y0qwHH8CiaGH5l4RN_TT-37" target="Y0qwHH8CiaGH5l4RN_TT-11">
          <mxGeometry relative="1" as="geometry">
            <Array as="points">
              <mxPoint x="300" y="614" />
              <mxPoint x="240" y="614" />
              <mxPoint x="240" y="534" />
            </Array>
          </mxGeometry>
        </mxCell>
        <mxCell id="Y0qwHH8CiaGH5l4RN_TT-37" value="" style="verticalLabelPosition=bottom;verticalAlign=top;html=1;shape=mxgraph.flowchart.summing_function;" vertex="1" parent="1">
          <mxGeometry x="292.5" y="656.5" width="15" height="15" as="geometry" />
        </mxCell>
        <mxCell id="Y0qwHH8CiaGH5l4RN_TT-38" style="edgeStyle=orthogonalEdgeStyle;rounded=0;orthogonalLoop=1;jettySize=auto;html=1;entryX=0;entryY=0.5;entryDx=0;entryDy=0;entryPerimeter=0;jumpSize=4;endSize=3;" edge="1" parent="1" source="Y0qwHH8CiaGH5l4RN_TT-31" target="Y0qwHH8CiaGH5l4RN_TT-37">
          <mxGeometry relative="1" as="geometry" />
        </mxCell>
        <mxCell id="Y0qwHH8CiaGH5l4RN_TT-39" style="edgeStyle=orthogonalEdgeStyle;rounded=0;orthogonalLoop=1;jettySize=auto;html=1;entryX=0.5;entryY=1;entryDx=0;entryDy=0;entryPerimeter=0;jumpSize=4;endSize=3;" edge="1" parent="1" source="Y0qwHH8CiaGH5l4RN_TT-28" target="Y0qwHH8CiaGH5l4RN_TT-37">
          <mxGeometry relative="1" as="geometry" />
        </mxCell>
        <mxCell id="Y0qwHH8CiaGH5l4RN_TT-40" value="Positional&lt;br&gt;Encoding" style="text;html=1;align=center;verticalAlign=middle;resizable=0;points=[];autosize=1;strokeColor=none;fillColor=none;" vertex="1" parent="1">
          <mxGeometry x="170" y="644" width="80" height="40" as="geometry" />
        </mxCell>
        <mxCell id="Y0qwHH8CiaGH5l4RN_TT-41" value="" style="group;flipV=1;" vertex="1" connectable="0" parent="1">
          <mxGeometry x="522" y="649" width="28" height="30" as="geometry" />
        </mxCell>
        <mxCell id="Y0qwHH8CiaGH5l4RN_TT-42" value="" style="ellipse;whiteSpace=wrap;html=1;aspect=fixed;rotation=-90;" vertex="1" parent="Y0qwHH8CiaGH5l4RN_TT-41">
          <mxGeometry y="1.5" width="28" height="28" as="geometry" />
        </mxCell>
        <mxCell id="Y0qwHH8CiaGH5l4RN_TT-43" value="" style="endArrow=none;html=1;rounded=0;curved=1;" edge="1" parent="Y0qwHH8CiaGH5l4RN_TT-41">
          <mxGeometry width="50" height="50" relative="1" as="geometry">
            <mxPoint x="1.1546391752577319" y="9.896907216494842" as="sourcePoint" />
            <mxPoint x="27.134020618556697" y="19.175257731958766" as="targetPoint" />
            <Array as="points">
              <mxPoint x="12.70103092783505" y="3.7113402061855645" />
              <mxPoint x="15.58762886597938" y="25.360824742268044" />
            </Array>
          </mxGeometry>
        </mxCell>
        <mxCell id="Y0qwHH8CiaGH5l4RN_TT-44" style="edgeStyle=orthogonalEdgeStyle;rounded=1;orthogonalLoop=1;jettySize=auto;html=1;entryX=0.5;entryY=1;entryDx=0;entryDy=0;curved=0;endSize=3;" edge="1" parent="1" source="Y0qwHH8CiaGH5l4RN_TT-48" target="Y0qwHH8CiaGH5l4RN_TT-8">
          <mxGeometry relative="1" as="geometry" />
        </mxCell>
        <mxCell id="Y0qwHH8CiaGH5l4RN_TT-45" style="edgeStyle=orthogonalEdgeStyle;rounded=1;orthogonalLoop=1;jettySize=auto;html=1;entryX=0.132;entryY=1.014;entryDx=0;entryDy=0;curved=0;entryPerimeter=0;endSize=3;" edge="1" parent="1" source="Y0qwHH8CiaGH5l4RN_TT-48" target="Y0qwHH8CiaGH5l4RN_TT-8">
          <mxGeometry relative="1" as="geometry">
            <Array as="points">
              <mxPoint x="490" y="604" />
              <mxPoint x="461" y="604" />
            </Array>
          </mxGeometry>
        </mxCell>
        <mxCell id="Y0qwHH8CiaGH5l4RN_TT-46" style="edgeStyle=orthogonalEdgeStyle;rounded=1;orthogonalLoop=1;jettySize=auto;html=1;entryX=0.884;entryY=1.004;entryDx=0;entryDy=0;curved=0;entryPerimeter=0;endSize=3;" edge="1" parent="1" source="Y0qwHH8CiaGH5l4RN_TT-48" target="Y0qwHH8CiaGH5l4RN_TT-8">
          <mxGeometry relative="1" as="geometry">
            <mxPoint x="510" y="594" as="targetPoint" />
            <Array as="points">
              <mxPoint x="490" y="604" />
              <mxPoint x="521" y="604" />
            </Array>
          </mxGeometry>
        </mxCell>
        <mxCell id="Y0qwHH8CiaGH5l4RN_TT-47" style="edgeStyle=orthogonalEdgeStyle;rounded=1;orthogonalLoop=1;jettySize=auto;html=1;entryX=1;entryY=0.5;entryDx=0;entryDy=0;curved=0;endSize=3;" edge="1" parent="1" source="Y0qwHH8CiaGH5l4RN_TT-48" target="Y0qwHH8CiaGH5l4RN_TT-13">
          <mxGeometry relative="1" as="geometry">
            <Array as="points">
              <mxPoint x="490" y="614" />
              <mxPoint x="550" y="614" />
              <mxPoint x="550" y="524" />
            </Array>
          </mxGeometry>
        </mxCell>
        <mxCell id="Y0qwHH8CiaGH5l4RN_TT-48" value="" style="verticalLabelPosition=bottom;verticalAlign=top;html=1;shape=mxgraph.flowchart.summing_function;" vertex="1" parent="1">
          <mxGeometry x="482.5" y="656.5" width="15" height="15" as="geometry" />
        </mxCell>
        <mxCell id="Y0qwHH8CiaGH5l4RN_TT-49" style="edgeStyle=orthogonalEdgeStyle;rounded=0;orthogonalLoop=1;jettySize=auto;html=1;entryX=1;entryY=0.5;entryDx=0;entryDy=0;entryPerimeter=0;endSize=3;" edge="1" parent="1" source="Y0qwHH8CiaGH5l4RN_TT-42" target="Y0qwHH8CiaGH5l4RN_TT-48">
          <mxGeometry relative="1" as="geometry" />
        </mxCell>
        <mxCell id="Y0qwHH8CiaGH5l4RN_TT-50" value="Positional&lt;br&gt;Encoding" style="text;html=1;align=center;verticalAlign=middle;resizable=0;points=[];autosize=1;strokeColor=none;fillColor=none;" vertex="1" parent="1">
          <mxGeometry x="540" y="644" width="80" height="40" as="geometry" />
        </mxCell>
        <mxCell id="Y0qwHH8CiaGH5l4RN_TT-51" value="Output&lt;br&gt;Probabilities" style="text;html=1;align=center;verticalAlign=middle;resizable=0;points=[];autosize=1;strokeColor=none;fillColor=none;" vertex="1" parent="1">
          <mxGeometry x="445" y="200" width="90" height="40" as="geometry" />
        </mxCell>
        <mxCell id="Y0qwHH8CiaGH5l4RN_TT-52" style="edgeStyle=orthogonalEdgeStyle;rounded=0;orthogonalLoop=1;jettySize=auto;html=1;entryX=0.5;entryY=1;entryDx=0;entryDy=0;entryPerimeter=0;endSize=3;" edge="1" parent="1" source="Y0qwHH8CiaGH5l4RN_TT-29" target="Y0qwHH8CiaGH5l4RN_TT-48">
          <mxGeometry relative="1" as="geometry">
            <mxPoint x="490" y="672" as="targetPoint" />
          </mxGeometry>
        </mxCell>
        <mxCell id="Y0qwHH8CiaGH5l4RN_TT-53" value="&lt;b&gt;Nx&lt;/b&gt;" style="text;html=1;align=right;verticalAlign=middle;resizable=0;points=[];autosize=1;strokeColor=none;fillColor=none;" vertex="1" parent="1">
          <mxGeometry x="180" y="541.5" width="40" height="30" as="geometry" />
        </mxCell>
        <mxCell id="Y0qwHH8CiaGH5l4RN_TT-54" value="&lt;b&gt;Nx&lt;/b&gt;" style="text;html=1;align=left;verticalAlign=middle;resizable=0;points=[];autosize=1;strokeColor=none;fillColor=none;" vertex="1" parent="1">
          <mxGeometry x="570" y="484" width="40" height="30" as="geometry" />
        </mxCell>
        <mxCell id="Y0qwHH8CiaGH5l4RN_TT-55" value="Inputs" style="text;html=1;align=center;verticalAlign=middle;resizable=0;points=[];autosize=1;strokeColor=none;fillColor=none;" vertex="1" parent="1">
          <mxGeometry x="268" y="764" width="60" height="30" as="geometry" />
        </mxCell>
        <mxCell id="Y0qwHH8CiaGH5l4RN_TT-56" value="Outputs&lt;br&gt;(shifted right)" style="text;html=1;align=center;verticalAlign=middle;resizable=0;points=[];autosize=1;strokeColor=none;fillColor=none;" vertex="1" parent="1">
          <mxGeometry x="445" y="764" width="90" height="40" as="geometry" />
        </mxCell>
        <mxCell id="Y0qwHH8CiaGH5l4RN_TT-57" value="" style="endArrow=classic;html=1;rounded=0;" edge="1" parent="1">
          <mxGeometry width="50" height="50" relative="1" as="geometry">
            <mxPoint x="300" y="742" as="sourcePoint" />
            <mxPoint x="299.87" y="722" as="targetPoint" />
          </mxGeometry>
        </mxCell>
        <mxCell id="Y0qwHH8CiaGH5l4RN_TT-58" value="" style="endArrow=classic;html=1;rounded=0;" edge="1" parent="1">
          <mxGeometry width="50" height="50" relative="1" as="geometry">
            <mxPoint x="490" y="764" as="sourcePoint" />
            <mxPoint x="489.87" y="722" as="targetPoint" />
          </mxGeometry>
        </mxCell>
        <mxCell id="Y0qwHH8CiaGH5l4RN_TT-59" value="" style="endArrow=classic;html=1;rounded=0;" edge="1" parent="1">
          <mxGeometry width="50" height="50" relative="1" as="geometry">
            <mxPoint x="489.87" y="254" as="sourcePoint" />
            <mxPoint x="489.87" y="234" as="targetPoint" />
          </mxGeometry>
        </mxCell>
        <mxCell id="Y0qwHH8CiaGH5l4RN_TT-60" value="" style="endArrow=classic;html=1;rounded=0;" edge="1" parent="1">
          <mxGeometry width="50" height="50" relative="1" as="geometry">
            <mxPoint x="300" y="764" as="sourcePoint" />
            <mxPoint x="299.87" y="722" as="targetPoint" />
          </mxGeometry>
        </mxCell>
      </root>
    </mxGraphModel>
  </diagram>
  <diagram id="8zhoZlfgfoW79DHN-ruv" name="en-de-input">
    <mxGraphModel dx="989" dy="580" grid="1" gridSize="10" guides="1" tooltips="1" connect="1" arrows="1" fold="1" page="1" pageScale="1" pageWidth="827" pageHeight="1169" math="0" shadow="0">
      <root>
        <mxCell id="0" />
        <mxCell id="1" parent="0" />
        <mxCell id="4kSpnyX9yCkpibxd0BHU-25" value="Input&lt;br&gt;Embedding" style="rounded=0;whiteSpace=wrap;html=1;fillColor=#f8cecc;strokeColor=#b85450;" vertex="1" parent="1">
          <mxGeometry x="210" y="548" width="80" height="30" as="geometry" />
        </mxCell>
        <mxCell id="4kSpnyX9yCkpibxd0BHU-26" value="Output&lt;br&gt;Embedding" style="rounded=0;whiteSpace=wrap;html=1;fillColor=#f8cecc;strokeColor=#b85450;" vertex="1" parent="1">
          <mxGeometry x="400" y="548" width="80" height="30" as="geometry" />
        </mxCell>
        <mxCell id="4kSpnyX9yCkpibxd0BHU-27" value="" style="group;flipV=1;" vertex="1" connectable="0" parent="1">
          <mxGeometry x="190" y="505" width="28" height="30" as="geometry" />
        </mxCell>
        <mxCell id="4kSpnyX9yCkpibxd0BHU-28" value="" style="ellipse;whiteSpace=wrap;html=1;aspect=fixed;rotation=-90;" vertex="1" parent="4kSpnyX9yCkpibxd0BHU-27">
          <mxGeometry y="1.5" width="28" height="28" as="geometry" />
        </mxCell>
        <mxCell id="4kSpnyX9yCkpibxd0BHU-29" value="" style="endArrow=none;html=1;rounded=0;curved=1;" edge="1" parent="4kSpnyX9yCkpibxd0BHU-27">
          <mxGeometry width="50" height="50" relative="1" as="geometry">
            <mxPoint x="1.1546391752577319" y="9.896907216494842" as="sourcePoint" />
            <mxPoint x="27.134020618556697" y="19.175257731958766" as="targetPoint" />
            <Array as="points">
              <mxPoint x="12.70103092783505" y="3.7113402061855645" />
              <mxPoint x="15.58762886597938" y="25.360824742268044" />
            </Array>
          </mxGeometry>
        </mxCell>
        <mxCell id="4kSpnyX9yCkpibxd0BHU-30" style="edgeStyle=orthogonalEdgeStyle;rounded=1;orthogonalLoop=1;jettySize=auto;html=1;curved=0;endSize=3;" edge="1" parent="1" source="4kSpnyX9yCkpibxd0BHU-34">
          <mxGeometry relative="1" as="geometry">
            <mxPoint x="250" y="480" as="targetPoint" />
          </mxGeometry>
        </mxCell>
        <mxCell id="4kSpnyX9yCkpibxd0BHU-34" value="" style="verticalLabelPosition=bottom;verticalAlign=top;html=1;shape=mxgraph.flowchart.summing_function;" vertex="1" parent="1">
          <mxGeometry x="242.5" y="512.5" width="15" height="15" as="geometry" />
        </mxCell>
        <mxCell id="4kSpnyX9yCkpibxd0BHU-35" style="edgeStyle=orthogonalEdgeStyle;rounded=0;orthogonalLoop=1;jettySize=auto;html=1;entryX=0;entryY=0.5;entryDx=0;entryDy=0;entryPerimeter=0;jumpSize=4;endSize=3;" edge="1" parent="1" source="4kSpnyX9yCkpibxd0BHU-28" target="4kSpnyX9yCkpibxd0BHU-34">
          <mxGeometry relative="1" as="geometry" />
        </mxCell>
        <mxCell id="4kSpnyX9yCkpibxd0BHU-36" style="edgeStyle=orthogonalEdgeStyle;rounded=0;orthogonalLoop=1;jettySize=auto;html=1;entryX=0.5;entryY=1;entryDx=0;entryDy=0;entryPerimeter=0;jumpSize=4;endSize=3;" edge="1" parent="1" source="4kSpnyX9yCkpibxd0BHU-25" target="4kSpnyX9yCkpibxd0BHU-34">
          <mxGeometry relative="1" as="geometry" />
        </mxCell>
        <mxCell id="4kSpnyX9yCkpibxd0BHU-37" value="Positional&lt;br&gt;Encoding" style="text;html=1;align=center;verticalAlign=middle;resizable=0;points=[];autosize=1;strokeColor=none;fillColor=none;" vertex="1" parent="1">
          <mxGeometry x="120" y="500" width="80" height="40" as="geometry" />
        </mxCell>
        <mxCell id="4kSpnyX9yCkpibxd0BHU-38" value="" style="group;flipV=1;" vertex="1" connectable="0" parent="1">
          <mxGeometry x="472" y="505" width="28" height="30" as="geometry" />
        </mxCell>
        <mxCell id="4kSpnyX9yCkpibxd0BHU-39" value="" style="ellipse;whiteSpace=wrap;html=1;aspect=fixed;rotation=-90;" vertex="1" parent="4kSpnyX9yCkpibxd0BHU-38">
          <mxGeometry y="1.5" width="28" height="28" as="geometry" />
        </mxCell>
        <mxCell id="4kSpnyX9yCkpibxd0BHU-40" value="" style="endArrow=none;html=1;rounded=0;curved=1;" edge="1" parent="4kSpnyX9yCkpibxd0BHU-38">
          <mxGeometry width="50" height="50" relative="1" as="geometry">
            <mxPoint x="1.1546391752577319" y="9.896907216494842" as="sourcePoint" />
            <mxPoint x="27.134020618556697" y="19.175257731958766" as="targetPoint" />
            <Array as="points">
              <mxPoint x="12.70103092783505" y="3.7113402061855645" />
              <mxPoint x="15.58762886597938" y="25.360824742268044" />
            </Array>
          </mxGeometry>
        </mxCell>
        <mxCell id="4kSpnyX9yCkpibxd0BHU-41" style="edgeStyle=orthogonalEdgeStyle;rounded=1;orthogonalLoop=1;jettySize=auto;html=1;curved=0;endSize=3;" edge="1" parent="1" source="4kSpnyX9yCkpibxd0BHU-45">
          <mxGeometry relative="1" as="geometry">
            <mxPoint x="440" y="480" as="targetPoint" />
          </mxGeometry>
        </mxCell>
        <mxCell id="4kSpnyX9yCkpibxd0BHU-45" value="" style="verticalLabelPosition=bottom;verticalAlign=top;html=1;shape=mxgraph.flowchart.summing_function;" vertex="1" parent="1">
          <mxGeometry x="432.5" y="512.5" width="15" height="15" as="geometry" />
        </mxCell>
        <mxCell id="4kSpnyX9yCkpibxd0BHU-46" style="edgeStyle=orthogonalEdgeStyle;rounded=0;orthogonalLoop=1;jettySize=auto;html=1;entryX=1;entryY=0.5;entryDx=0;entryDy=0;entryPerimeter=0;endSize=3;" edge="1" parent="1" source="4kSpnyX9yCkpibxd0BHU-39" target="4kSpnyX9yCkpibxd0BHU-45">
          <mxGeometry relative="1" as="geometry" />
        </mxCell>
        <mxCell id="4kSpnyX9yCkpibxd0BHU-47" value="Positional&lt;br&gt;Encoding" style="text;html=1;align=center;verticalAlign=middle;resizable=0;points=[];autosize=1;strokeColor=none;fillColor=none;" vertex="1" parent="1">
          <mxGeometry x="490" y="500" width="80" height="40" as="geometry" />
        </mxCell>
        <mxCell id="4kSpnyX9yCkpibxd0BHU-49" style="edgeStyle=orthogonalEdgeStyle;rounded=0;orthogonalLoop=1;jettySize=auto;html=1;entryX=0.5;entryY=1;entryDx=0;entryDy=0;entryPerimeter=0;endSize=3;" edge="1" parent="1" source="4kSpnyX9yCkpibxd0BHU-26" target="4kSpnyX9yCkpibxd0BHU-45">
          <mxGeometry relative="1" as="geometry">
            <mxPoint x="440" y="528" as="targetPoint" />
          </mxGeometry>
        </mxCell>
        <mxCell id="4kSpnyX9yCkpibxd0BHU-52" value="Inputs" style="text;html=1;align=center;verticalAlign=middle;resizable=0;points=[];autosize=1;strokeColor=none;fillColor=none;" vertex="1" parent="1">
          <mxGeometry x="242.5" y="600" width="60" height="30" as="geometry" />
        </mxCell>
        <mxCell id="4kSpnyX9yCkpibxd0BHU-53" value="Outputs&lt;br&gt;(shifted right)" style="text;html=1;align=center;verticalAlign=middle;resizable=0;points=[];autosize=1;strokeColor=none;fillColor=none;" vertex="1" parent="1">
          <mxGeometry x="420" y="600" width="90" height="40" as="geometry" />
        </mxCell>
        <mxCell id="4kSpnyX9yCkpibxd0BHU-54" value="" style="endArrow=classic;html=1;rounded=0;" edge="1" parent="1">
          <mxGeometry width="50" height="50" relative="1" as="geometry">
            <mxPoint x="250" y="598" as="sourcePoint" />
            <mxPoint x="249.87" y="578" as="targetPoint" />
          </mxGeometry>
        </mxCell>
        <mxCell id="4kSpnyX9yCkpibxd0BHU-55" value="" style="endArrow=classic;html=1;rounded=0;" edge="1" parent="1">
          <mxGeometry width="50" height="50" relative="1" as="geometry">
            <mxPoint x="440" y="620" as="sourcePoint" />
            <mxPoint x="439.87" y="578" as="targetPoint" />
          </mxGeometry>
        </mxCell>
        <mxCell id="4kSpnyX9yCkpibxd0BHU-57" value="" style="endArrow=classic;html=1;rounded=0;" edge="1" parent="1">
          <mxGeometry width="50" height="50" relative="1" as="geometry">
            <mxPoint x="250" y="620" as="sourcePoint" />
            <mxPoint x="249.87" y="578" as="targetPoint" />
          </mxGeometry>
        </mxCell>
        <mxCell id="CONDHdNIaewzbyW3b6An-2" value="Encoder Input" style="text;html=1;align=center;verticalAlign=middle;resizable=0;points=[];autosize=1;strokeColor=none;fillColor=none;" vertex="1" parent="1">
          <mxGeometry x="242.5" y="470" width="100" height="30" as="geometry" />
        </mxCell>
        <mxCell id="CONDHdNIaewzbyW3b6An-3" value="Decoder Input" style="text;html=1;align=center;verticalAlign=middle;resizable=0;points=[];autosize=1;strokeColor=none;fillColor=none;" vertex="1" parent="1">
          <mxGeometry x="436" y="470" width="100" height="30" as="geometry" />
        </mxCell>
        <mxCell id="CONDHdNIaewzbyW3b6An-4" value="Embedding" style="rounded=0;whiteSpace=wrap;html=1;fillColor=#f8cecc;strokeColor=#b85450;" vertex="1" parent="1">
          <mxGeometry x="316" y="670" width="80" height="20" as="geometry" />
        </mxCell>
        <mxCell id="CONDHdNIaewzbyW3b6An-5" value="" style="group;flipV=1;" vertex="1" connectable="0" parent="1">
          <mxGeometry x="316" y="705" width="28" height="30" as="geometry" />
        </mxCell>
        <mxCell id="CONDHdNIaewzbyW3b6An-6" value="" style="ellipse;whiteSpace=wrap;html=1;aspect=fixed;rotation=-90;" vertex="1" parent="CONDHdNIaewzbyW3b6An-5">
          <mxGeometry y="1.5" width="28" height="28" as="geometry" />
        </mxCell>
        <mxCell id="CONDHdNIaewzbyW3b6An-7" value="" style="endArrow=none;html=1;rounded=0;curved=1;" edge="1" parent="CONDHdNIaewzbyW3b6An-5">
          <mxGeometry width="50" height="50" relative="1" as="geometry">
            <mxPoint x="1.1546391752577319" y="9.896907216494842" as="sourcePoint" />
            <mxPoint x="27.134020618556697" y="19.175257731958766" as="targetPoint" />
            <Array as="points">
              <mxPoint x="12.70103092783505" y="3.7113402061855645" />
              <mxPoint x="15.58762886597938" y="25.360824742268044" />
            </Array>
          </mxGeometry>
        </mxCell>
        <mxCell id="CONDHdNIaewzbyW3b6An-8" value="Positional&lt;br&gt;Encoding" style="text;html=1;align=center;verticalAlign=middle;resizable=0;points=[];autosize=1;strokeColor=none;fillColor=none;" vertex="1" parent="1">
          <mxGeometry x="334" y="700" width="80" height="40" as="geometry" />
        </mxCell>
      </root>
    </mxGraphModel>
  </diagram>
  <diagram id="aocEURRl0t9QA32reWMC" name="Page-4">
    <mxGraphModel dx="1434" dy="841" grid="1" gridSize="10" guides="1" tooltips="1" connect="1" arrows="1" fold="1" page="1" pageScale="1" pageWidth="827" pageHeight="1169" math="0" shadow="0">
      <root>
        <mxCell id="0" />
        <mxCell id="1" parent="0" />
        <mxCell id="Mp7XoirYQMDDv4lq7W7J-1" value="" style="rounded=1;whiteSpace=wrap;html=1;" vertex="1" parent="1">
          <mxGeometry x="280" y="380" width="120" height="60" as="geometry" />
        </mxCell>
      </root>
    </mxGraphModel>
  </diagram>
</mxfile>
